<svg width="34" height="34" viewBox="0 0 34 34" fill="none" xmlns="http://www.w3.org/2000/svg">
<circle cx="17" cy="17" r="14" fill="white"/>
<path d="M31.451 7.8689C26.373 -0.00322008 15.974 -2.3357 7.93184 2.54793C0.0840206 7.43156 -2.44283 18.0735 2.63517 25.9213L3.04821 26.553L1.34745 32.9188L7.71317 31.218L8.34488 31.631C11.0904 33.1131 14.0789 33.9635 17.0431 33.9635C20.2259 33.9635 23.4088 33.1131 26.1543 31.4124C34.0022 26.3101 36.3346 15.8868 31.451 7.8203V7.8689ZM27.0047 24.2448C26.1543 25.5083 25.0853 26.3587 23.6032 26.5773C22.7528 26.5773 21.6837 26.9904 17.4561 25.3139C13.8602 23.6131 10.8717 20.8433 8.75793 17.6605C7.4945 16.1784 6.83849 14.2589 6.64412 12.3395C6.64412 10.6387 7.27583 9.15662 8.34488 8.08757C8.75793 7.67452 9.19527 7.45585 9.60831 7.45585H10.6774C11.0904 7.45585 11.5277 7.45585 11.7464 8.30624C12.1595 9.37529 13.2285 11.9264 13.2285 12.1451C13.4472 12.3638 13.35 13.9917 12.3781 14.9149C11.8436 15.5223 11.7464 15.5466 11.9651 15.984C12.8155 17.2474 13.8845 18.5351 14.9293 19.6042C16.1927 20.6732 17.4804 21.5236 18.9625 22.1553C19.3756 22.374 19.8129 22.374 20.0316 21.9367C20.2502 21.5236 21.295 20.4546 21.7323 20.0172C22.1454 19.6042 22.3641 19.6042 22.8014 19.7986L26.2029 21.4993C26.616 21.718 27.0533 21.9124 27.272 22.131C27.4906 22.7627 27.4907 23.6131 27.0533 24.2448H27.0047Z" fill="#4EC95C"/>
</svg>
